<svg xmlns="http://www.w3.org/2000/svg" viewBox="0 0 823.52 94.6"><defs><style>.cls-1,.cls-2{fill:none;stroke:#82ccd4;stroke-miterlimit:10;stroke-width:4px;}.cls-2{stroke-dasharray:12.1 12.1;}.cls-3{fill:#82ccd4;}</style></defs><title>Fichier 3</title><g id="Calque_2" data-name="Calque 2"><g id="Calque_1-2" data-name="Calque 1"><path class="cls-1" d="M.29,83.34c1.86.28,3.84.56,5.94.86"/><path class="cls-2" d="M18.22,85.82C81,93.89,209.48,103.87,276.11,56c13.51-9.7,43.31-35.33,32.31-46.82-14.2-14.84-95.08-4.73-100.87,13.15-5.1,15.77,47.81,38.75,89.84,49.46C370,90.28,443.74,79.1,588.18,56,644.8,46.92,705.37,35.16,782,47c11.33,1.75,21.21,3.75,29.27,5.58"/><path class="cls-1" d="M817.2,54q3.18.77,5.82,1.46"/><path class="cls-3" d="M474.7,63.78a1.66,1.66,0,0,1,1.16-1l6.26-1.56a1.68,1.68,0,0,1,1.52.37l5.71,6.38c1.78-.45,7.71-2,14.65-3.65l-5.47-10.45a1.32,1.32,0,0,1,.93-1.95l4.66-.92a2.29,2.29,0,0,1,1,0,2.25,2.25,0,0,1,.92.44L517.55,61c6-1.41,11.34-2.57,13.85-2.93a18.34,18.34,0,0,1,6.31.13c2.93.71,3.94,2.37,4.26,3.63a.81.81,0,0,1,0,.11c.7,3.48-3.12,6.56-10.21,8.24L520.14,73l-6.42,16.57A2.75,2.75,0,0,1,512.43,91l-5.26,2.42a1.29,1.29,0,0,1-.88.1,1.22,1.22,0,0,1-.92-1.26l.1-15.64L487.41,81a1.62,1.62,0,0,1-.79,0,1.7,1.7,0,0,1-1-.65l-10.75-15A1.66,1.66,0,0,1,474.7,63.78Z"/></g></g></svg>